<svg xmlns="http://www.w3.org/2000/svg" width="44" height="44" fill="none"><circle cx="22" cy="22" r="22" fill="#D9D9D9" fill-opacity=".7"/><path fill="#898989" d="M16.342 14.483a2 2 0 0 1-.215.286l-.01.016-.023.043q-.15.175-.279.345a5 5 0 0 1-.141.18 3 3 0 0 0-.143.184c-.055.08-.135.151-.203.238q-.347.446-.58.713c-.164.188-.308.394-.482.6-.238.28-.483.586-.822 1.001-.144.177-.367.466-.565.688-.287.36-.608.735-.824 1.003a36 36 0 0 1-.955 1.136c-.233.266-.508.629-.76.907a.34.34 0 0 0-.09.246c.002.07.005.149.044.196q.835 1.02 2.799 3.382.05.06.081.09.015.008.019 0 .011-.015-.002-.03a9 9 0 0 1-.258-.306 3 3 0 0 0-.195-.228.1.1 0 0 1-.02-.027 1 1 0 0 0-.06-.09q-.49-.582-.695-.823a10 10 0 0 1-.286-.354c-.236-.305-.487-.58-.723-.878a24 24 0 0 0-.566-.682q-.159-.186-.031-.423a.5.5 0 0 1 .12-.126l.01-.001c.256.028.4.047.61.015h.002l.002.003.001.003-.001.002-.196.242a.05.05 0 0 0-.006.052.7.7 0 0 0 .08.123q.232.291.367.468c.044.06.122.133.157.186q.082.122.144.188.093.098.139.153a31 31 0 0 0 .476.566q.033.06.098.116l.012.013.399.508.003.003c.077.071.133.166.199.24q.113.128.203.256c.067.094.139.153.205.24q.067.089.153.182c.098.105.178.226.273.33q.145.16.22.26.105.136.218.262.152.168.29.349c.025.033.068.067.091.096l.311.382.477.552.333.406q.052.066.225.26.105.12.223.264c.061.076.114.121.17.198q.06.084.138.153c.017.016.032.051.044.063q.15.147.335.363a.7.7 0 0 0 .158.146q.093.051.202.065.153.018.2.017c.247-.01.45.005.669-.004.2-.007.4-.001.638-.006q.047-.001.125.014l.023.002q.493.004.8.001c.047 0 .112.01.172.005a2 2 0 0 1 .129-.005h1.063c.054 0 .115-.008.172-.011a.03.03 0 0 0 .021-.01q.051-.054.008-.102a13 13 0 0 1-.495-.578 1 1 0 0 0-.08-.09 2 2 0 0 1-.098-.123c-.087-.118-.175-.2-.265-.315a5 5 0 0 0-.284-.332.1.1 0 0 1-.012-.023l-.008-.014-3.482-4.166-.002-.004v-.005l.003-.004.004-.002c.168-.034.333-.04.492-.057a.03.03 0 0 1 .023.01l.095.125.007.007q.047.03.088.09c.098.14.226.272.29.36.07.093.15.164.224.265.094.129.22.248.318.371q.088.112.125.148.086.081.188.22.074.1.213.256c.04.045.093.122.147.175.071.069.142.174.213.253.065.072.097.132.162.198q.037.037.126.143.125.15.194.227.126.142.16.187c.125.162.184.22.304.373q.085.108.174.192l.015.019a1.2 1.2 0 0 0 .188.23q.033.05.068.079l.016.018c.046.075.123.142.18.215q.038.049.09.113.165.207.347.412.072.081.232.282.09.114.181.215.093.103.181.218c.028.036.067.068.09.097l.167.215q.007.009.017.016l.033.03q.066.096.172.226l.06.065a1 1 0 0 1 .09.117q.025.039.078.034-.304-.37-.61-.736a395 395 0 0 0-1.534-1.837 185 185 0 0 0-1.773-2.107 345 345 0 0 0-2.058-2.442 7 7 0 0 0-.271-.282c-.105-.105-.236-.192-.341-.308a.06.06 0 0 1-.016-.042.06.06 0 0 1 .017-.042q.09-.091.184-.216c.048-.063.119-.128.157-.177.225-.286.426-.52.637-.783q1.467-1.824 3.166-3.92c.39-.482.744-.93 1.199-1.482.125-.151.23-.293.36-.444q.11-.127.275-.33.429-.525.507-.608.026-.029.115-.108-2.59-.004-5.184 0c-.187 0-.368.037-.506.154q-.052.045-.119.124-.1.122-.154.203m4.712.207a1 1 0 0 0-.089.103c-.266.34-.593.729-.82 1.017q-.205.258-.436.538-.03.036-.065.088c-.053.077-.12.142-.176.215q-.304.396-.832 1.03l-.195.234-1.795 2.234q-.65.82-1.512 1.868c-.033.04-.042.07-.009.112q.116.15.218.26c.017.018.044.066.066.089q.115.117.242.285c.044.057.1.107.145.164l.078.096q.21.253.718.85l.826.97c.135.16.207.251.3.362a329 329 0 0 1 1.713 2.052c.136.165.592.705.591.707q0 .003.626.749c.196.233.397.485.587.7l.004.007a.02.02 0 0 1-.005.016l-.008.004a1 1 0 0 1-.153.014q-.61.014-1.83-.001a72 72 0 0 0-1.457-.004c-.075 0-.158-.006-.256 0q-.12.007-.287-.015a.55.55 0 0 1-.355-.216c-.085-.103-.181-.191-.273-.3l-.34-.399q-.378-.44-.697-.818a223 223 0 0 1-2.073-2.47c-.25-.293-.483-.594-.736-.894q-.161-.192-.397-.485-.545-.675-.868-1.058-.225-.27-.275-.333a5 5 0 0 0-.277-.34.057.057 0 0 1-.004-.07q.031-.048.104-.132.35-.408 1.683-1.998l.905-1.078q1.988-2.385 2.052-2.459c.238-.28.372-.45.59-.707q.63-.742.667-.783c.104-.118.17-.197.34-.195q.225.002.502-.006.288-.008.5-.01l2.508-.023a3 3 0 0 1 .254.01l.004.006a.01.01 0 0 1-.003.014"/><path fill="#0E181C" d="M22.305 14.002q-.09.08-.115.108-.077.083-.507.608-.165.202-.275.33c-.13.15-.235.293-.36.444-.455.552-.809 1-1.199 1.482a1339 1339 0 0 0-3.166 3.92c-.211.263-.412.497-.637.783-.038.05-.11.114-.157.177a2 2 0 0 1-.184.216.06.06 0 0 0-.001.084c.105.116.236.203.34.308q.216.216.272.282a349 349 0 0 1 2.175 2.583q.861 1.008 1.656 1.966.183.22.42.5a408 408 0 0 1 1.724 2.073c.048.051.161.206.005.21-.395.007-.696.002-1.115.008q-.276.004-.513.003-1.733-.002-3.498.003-.05 0-.21-.017a.61.61 0 0 1-.196-.08 1.6 1.6 0 0 1-.213-.208q-.423-.48-1.067-1.269l-.095-.113q-.342-.405-1.215-1.467c-.277-.336-.672-.793-1-1.199q-.03-.03-.081-.09a754 754 0 0 1-2.799-3.381c-.039-.048-.043-.126-.045-.197a.34.34 0 0 1 .09-.246c.253-.278.528-.641.761-.906q.448-.51.955-1.137c.216-.268.537-.643.825-1.003l-.08-.063q-.856 1.016-1.716 2.028-.683.804-.941 1.114a.7.7 0 0 0-.115.25 2 2 0 0 0-.022.213 2 2 0 0 0-.005.214l.015.491a.62.62 0 0 0 .151.395q.359.42.713.85a2202 2202 0 0 0 3.426 4.143 600 600 0 0 0 1.84 2.217q.16.195.242.246c.158.1.319.125.516.125h5.072a.52.52 0 0 0 .432-.191l.3-.38c.095-.116.17-.201.201-.329.025-.104-.08-.264-.147-.344q-.338-.406-1.059-1.284-.181-.222-2.482-2.98l-.557-.669-1.826-2.184q-.134-.154-.315-.383a.037.037 0 0 1 0-.046 483 483 0 0 1 2.722-3.423l3.214-4.028a4 4 0 0 0 .142-.186q.146-.213-.003-.407a.48.48 0 0 0-.293-.164m-4.733 16.123q.004.003.005.008l-.003.012-.009.008h-.009a.01.01 0 0 1-.004-.009l.003-.011.009-.008zm3.827.086a.01.01 0 0 1-.008.013l-.009-.001-.007-.006q-.01-.015.01-.016.01-.001.014.01m-4.235.031-.02-.02-.001-.004v-.004q0-.003.003-.004l.004-.001q.019-.002.026.006a.02.02 0 0 1 0 .025l-.003.003h-.008m3.45-.008a.02.02 0 0 1 .016-.002q.002 0 .003.002l.002.004v.004l-.003.003q-.006.005-.015 0l-.003-.002-.002-.003v-.004z"/><path fill="#4B4132" fill-opacity=".992" d="M16.341 14.482 12.8 18.714l.08.063c.198-.222.42-.511.565-.688.338-.415.584-.72.821-1.001.175-.206.318-.413.482-.6q.233-.267.581-.714c.067-.086.148-.156.203-.238q.047-.067.142-.183.054-.065.142-.18.127-.17.279-.345l.022-.043.01-.016q.123-.133.215-.287"/><path fill="#0E181C" d="m21.053 14.69.004-.005v-.008a.01.01 0 0 0-.01-.009 3 3 0 0 0-.249-.007q-.341.002-2.507.023a26 26 0 0 0-.5.01 13 13 0 0 1-.502.006c-.17-.002-.236.077-.34.195q-.036.04-.668.784c-.218.256-.352.427-.59.706l-2.051 2.459-.905 1.078a329 329 0 0 1-1.684 1.998q-.071.085-.104.13a.056.056 0 0 0 .004.072q.13.144.278.34.048.064.275.333.322.383.867 1.058.236.293.398.485c.253.3.487.601.736.895q.145.17.34.409a226 226 0 0 0 2.43 2.878q.21.244.34.4c.091.108.188.196.273.3a.55.55 0 0 0 .354.216q.168.023.288.014c.097-.006.18 0 .255 0q.645-.006 1.457.004 1.221.015 1.83.001a1 1 0 0 0 .162-.018l.004-.007v-.009l-.003-.007c-.19-.215-.391-.466-.587-.7a58 58 0 0 1-.626-.75s-.455-.54-.591-.706q-.377-.459-1.713-2.052c-.093-.11-.165-.202-.3-.361l-.826-.97a82 82 0 0 1-.796-.946c-.045-.058-.101-.108-.145-.165a3 3 0 0 0-.242-.285c-.023-.023-.05-.07-.067-.09a4 4 0 0 1-.217-.259c-.033-.042-.024-.072.009-.112a120 120 0 0 0 1.754-2.172l1.553-1.93.194-.235q.528-.633.833-1.028c.056-.073.122-.139.175-.216q.036-.051.066-.088.231-.28.435-.538c.228-.288.555-.676.821-1.017a1 1 0 0 1 .088-.103m-2.83.116q0-.005.002-.009 0-.003.004-.004h.005q.003 0 .005.003l.002.006q0 .007-.007.01-.01.003-.01-.006m-.028 1.588q0-.008.006-.015a.02.02 0 0 1 .014-.006.02.02 0 0 1 .014.006.02.02 0 0 1 0 .03.02.02 0 0 1-.028 0 .02.02 0 0 1-.006-.015m-2.562 1.087q0-.006.004-.011a.02.02 0 0 1 .01-.005q.006 0 .01.005a.02.02 0 0 1 .005.01.02.02 0 0 1-.004.011.02.02 0 0 1-.01.005.02.02 0 0 1-.011-.005.02.02 0 0 1-.005-.01m2.907.036.004.006v.008l-.001.008-.005.008a.03.03 0 0 1-.014.008q-.009.001-.014-.004l-.004-.007-.002-.008a.03.03 0 0 1 .007-.015.02.02 0 0 1 .015-.008q.008-.002.014.004m-2.062 1.762a.01.01 0 0 1-.006.011.02.02 0 0 1-.015 0q-.007-.002-.005-.008.002-.015.015-.012.01.002.011.009m-3.673 1.53q0-.008.006-.015.008-.01.015 0 .007.013.001.021l-.006.005a.01.01 0 0 1-.013-.004zm-1.207 1.24.002-.006.005-.002q1.153-.006 2.332-.022c.249-.004.602 0 .937 0a.3.3 0 0 1 .111.025l.001.003v.003l-.003.002a1 1 0 0 1-.102.004 567 567 0 0 1-3.28-.002zm2.487.389q0-.006.004-.01l.008-.003q.006 0 .009.004l.004.009-.004.008a.012.012 0 0 1-.017 0zm3.088 3.933a.01.01 0 0 1 .008.005l.003.011-.004.011a.01.01 0 0 1-.008.005.01.01 0 0 1-.009-.005l-.003-.012q0-.006.004-.01a.01.01 0 0 1 .009-.005m.59.02a.02.02 0 0 1 .005-.014.02.02 0 0 1 .026 0 .02.02 0 0 1 .006.014.02.02 0 0 1-.006.014.02.02 0 0 1-.013.005.02.02 0 0 1-.013-.006.02.02 0 0 1-.006-.013m.565.34q0-.008.005-.012a.02.02 0 0 1 .011-.005q.006 0 .011.005a.02.02 0 0 1 0 .024.02.02 0 0 1-.011.005.02.02 0 0 1-.011-.005.02.02 0 0 1-.005-.012m-2.9.252q.008.015-.006.026-.004.004-.007.002l-.007-.007-.002-.01q0-.005.004-.009l.008-.005q.008-.002.01.003m.439.094q0-.006.003-.009a.012.012 0 0 1 .017 0l.003.009-.003.008a.012.012 0 0 1-.017 0zm2.017.394q0-.003.002-.005l.004-.004.006-.003a.03.03 0 0 1 .015 0 .02.02 0 0 1 .01.009v.006l-.001.005-.004.004-.006.003a.03.03 0 0 1-.015 0l-.006-.004-.004-.005zm-1.727.098a.02.02 0 0 1 .003.016.03.03 0 0 1-.01.016.03.03 0 0 1-.017.007.02.02 0 0 1-.015-.006q-.005-.007-.003-.016a.03.03 0 0 1 .01-.017.03.03 0 0 1 .017-.007q.009 0 .015.006m2.084.463a.02.02 0 0 1 .006-.015l.007-.004.008-.002a.02.02 0 0 1 .014.006.02.02 0 0 1 0 .03.02.02 0 0 1-.029 0l-.004-.007zm.402.244q.003.008-.002.024-.005.012-.015.006a.02.02 0 0 1-.01-.017q0-.006.002-.012l.008-.008a.01.01 0 0 1 .01-.001.01.01 0 0 1 .007.008m-1.614.02a.02.02 0 0 1 .006-.013.017.017 0 0 1 .025 0 .02.02 0 0 1 0 .026.018.018 0 0 1-.025 0 .02.02 0 0 1-.006-.012m1.528.028a.03.03 0 0 1-.003-.022q0-.003.002-.005l.004-.002h.005l.003.004q.004.008-.002.024l-.001.003a.01.01 0 0 1-.006 0zm1.582.4-.001-.006q0-.004.003-.007l.007-.003h.008q.007.003.007.009 0 .012-.013.012-.01 0-.011-.004m-1.042.071q0-.015.01-.025l.005-.004h.006l.006.003.002.006a.1.1 0 0 1-.002.023q-.005.012-.019.007-.008-.003-.008-.01m-.372.272q.003-.01.005-.01h.008l.006.005.002.008q0 .005-.002.009-.003.005-.011.002-.01-.002-.008-.014"/><path fill="#4B4132" fill-opacity=".992" d="M18.223 14.805q0 .008.01.005.008-.002.008-.01l-.002-.005-.005-.004h-.005l-.004.005zM33.968 15.353q.002-.023.017-.023c.008 0 .014.012.014.024q-.003.023-.017.023c-.009 0-.015-.012-.014-.025M31.362 15.362c.005-.011.017-.018.026-.013.01.004.013.017.008.029s-.017.018-.026.014c-.01-.005-.013-.018-.008-.03M18.215 16.413a.02.02 0 0 1-.02-.02.02.02 0 0 1 .02-.02c.01 0 .02.008.02.02a.02.02 0 0 1-.02.02M15.647 17.494a.015.015 0 0 1-.014-.015q.001-.014.014-.015.014.002.015.015a.015.015 0 0 1-.015.015M18.511 17.52c.008-.01.021-.011.029-.004.007.007.007.02-.002.03-.008.009-.02.01-.028.003s-.007-.02.001-.03M30.139 17.553q-.02-.006-.018-.018.005-.011.024-.006c.011.003.02.01.018.017s-.013.01-.024.007M31.31 17.783q.015-.005.02.006.002.012-.012.018-.015.004-.02-.007-.001-.012.012-.018M28.637 18.207q-.021-.002-.023-.02.002-.018.023-.02.021.002.023.02-.002.018-.023.02M31.07 18.61q.003-.02.015-.02.013.002.014.02-.002.019-.015.02-.012-.002-.013-.02M28.056 19.206q.022-.002.025.012 0 .015-.02.02-.021 0-.026-.013.002-.015.021-.02M16.478 19.278q0-.007-.011-.009-.013-.003-.016.012 0 .006.005.009l.008.001q.004 0 .008-.002l.005-.005z"/><path fill="#898989" d="M26.628 20.463q.005-.021.02-.02c.007.002.01.014.007.027s-.011.023-.019.02c-.008-.001-.011-.013-.008-.027"/><path fill="#4B4132" fill-opacity=".992" d="M26.736 20.505c.014-.003.027.005.03.016q0 .02-.023.026c-.015.003-.028-.005-.03-.016-.002-.012.008-.024.023-.026"/><path fill="#898989" d="M12.805 20.808q0 .004.002.007l.006.004h.008l.006-.005q.005-.008-.002-.02-.006-.011-.014-.001-.008.008-.006.015M13.174 25.737c.327.406.723.863 1 1.2a176 176 0 0 0 1.31 1.579q.643.789 1.066 1.269.12.136.214.207a.6.6 0 0 0 .197.081q.158.017.208.016 1.767-.005 3.499-.002.237 0 .512-.004c.42-.006.72 0 1.115-.008.157-.003.043-.158-.004-.21q-.052.006-.079-.033a1 1 0 0 0-.089-.117l-.06-.066a4 4 0 0 1-.172-.225l-.05-.046-.168-.215c-.023-.03-.061-.061-.09-.097q-.088-.116-.18-.218a5 5 0 0 1-.182-.216 8 8 0 0 0-.231-.281 11 11 0 0 1-.437-.525c-.057-.074-.134-.14-.18-.215a.1.1 0 0 0-.017-.019.4.4 0 0 1-.068-.077l-.013-.016a1.2 1.2 0 0 1-.174-.215l-.016-.02a2 2 0 0 1-.173-.191c-.12-.152-.179-.212-.303-.373a5 5 0 0 0-.162-.187q-.068-.078-.194-.227-.087-.106-.126-.144c-.064-.065-.096-.125-.161-.197-.072-.08-.142-.185-.213-.254-.054-.052-.107-.13-.147-.175a4 4 0 0 1-.214-.255 2 2 0 0 0-.187-.22 2 2 0 0 1-.125-.148c-.098-.123-.224-.242-.318-.37-.075-.102-.155-.174-.224-.267-.065-.087-.192-.22-.29-.36a.4.4 0 0 0-.096-.097l-.094-.124-.01-.009-.013-.002c-.16.017-.324.024-.492.057l-.004.003-.003.003v.005l.002.005 3.482 4.166.007.014a.1.1 0 0 0 .013.023q.153.164.284.332c.09.116.177.197.265.314q.068.09.098.123.06.063.08.09.068.095.495.579.042.048-.008.101a.03.03 0 0 1-.021.01c-.057.003-.119.012-.172.013h-1.063q-.07-.002-.13.004c-.06.005-.124-.005-.171-.005a55 55 0 0 1-.823-.003.6.6 0 0 0-.125-.015c-.239.006-.438 0-.639.007-.22.009-.421-.007-.67.004a2 2 0 0 1-.199-.017.6.6 0 0 1-.201-.066.7.7 0 0 1-.158-.145 6 6 0 0 0-.335-.363c-.013-.012-.027-.047-.045-.063a1 1 0 0 1-.138-.153c-.056-.077-.108-.122-.17-.198a9 9 0 0 0-.222-.263q-.172-.196-.226-.261l-.333-.406-.087-.101-.39-.451-.31-.383c-.023-.028-.066-.062-.092-.095a5 5 0 0 0-.289-.35 4 4 0 0 1-.218-.261 4 4 0 0 0-.22-.26c-.095-.105-.176-.226-.273-.33a2 2 0 0 1-.153-.182c-.067-.087-.139-.146-.206-.24a3 3 0 0 0-.203-.255c-.066-.075-.121-.17-.199-.241l-.003-.003-.399-.508-.012-.013a.5.5 0 0 1-.106-.13 31 31 0 0 1-.468-.552 3 3 0 0 0-.138-.154 1.5 1.5 0 0 1-.144-.187c-.036-.053-.113-.126-.158-.186q-.135-.178-.367-.468a.7.7 0 0 1-.08-.124.048.048 0 0 1 .005-.051l.198-.242v-.006l-.002-.002h-.003c-.209.032-.353.013-.609-.015h-.01l-.01.006a.5.5 0 0 0-.11.12q-.129.238.031.424.338.395.565.681c.237.298.488.574.724.879q.163.21.286.354.204.24.695.823.015.02.059.09.008.015.02.026.099.102.196.228.054.072.258.307.014.015.002.03-.005.007-.02 0M14.097 22.449a.012.012 0 0 1-.012-.013q.001-.011.012-.012.011 0 .012.012a.012.012 0 0 1-.012.013"/><path fill="#4B4132" fill-opacity=".992" d="M30.033 25.737q-.017-.006-.015-.02.005-.01.023-.007.017.006.015.02-.005.011-.023.007"/><path fill="#898989" d="M30.535 26.385c0-.016.008-.028.018-.028s.019.012.019.027c0 .016-.008.028-.018.028s-.019-.012-.019-.027M17.16 26.385q.002-.014.012-.015c.007 0 .012.008.012.016q-.001.015-.013.016-.01-.002-.011-.017"/><path fill="#4B4132" fill-opacity=".992" d="M17.78 26.409a.02.02 0 0 1-.018-.02q.001-.017.019-.019a.02.02 0 0 1 .019.02.02.02 0 0 1-.02.019M29.412 26.6c-.001-.01.003-.02.01-.02q.012.001.014.017.001.017-.01.02-.01-.001-.014-.017M18.344 26.745a.016.016 0 0 1-.016-.016q.001-.016.016-.017.015.001.016.017-.001.015-.016.016M30.2 26.883q.008-.017.023-.014.014.008.009.026-.01.017-.023.014c-.01-.003-.013-.015-.01-.026"/><path fill="#898989" d="M15.429 26.982q-.004-.006-.01-.004a.02.02 0 0 0-.013.014q0 .006.002.01l.007.007q.004.001.007-.002.014-.013.006-.025"/><path fill="#4B4132" fill-opacity=".992" d="M15.878 27.088a.012.012 0 0 1-.011-.012q.001-.011.011-.012.011 0 .012.012a.012.012 0 0 1-.012.012M17.902 27.484q-.017-.002-.018-.015c0-.008.01-.014.02-.013q.017.002.018.015c0 .008-.01.014-.02.013"/><path fill="#898989" d="M16.125 27.568c.01-.01.024-.01.032-.001.007.009.004.023-.007.032s-.025.01-.032.001c-.007-.008-.004-.023.007-.032"/><path fill="#4B4132" fill-opacity=".992" d="M31.047 27.95c0-.011.005-.022.012-.022s.013.01.013.022q0 .021-.012.023c-.007 0-.013-.01-.013-.022M18.262 28.053a.02.02 0 0 1-.02-.021.02.02 0 0 1 .02-.021c.01 0 .02.01.02.02a.02.02 0 0 1-.02.022M18.643 28.275a.01.01 0 0 0-.006-.008.01.01 0 0 0-.01.001.02.02 0 0 0-.009.009l-.002.012a.02.02 0 0 0 .01.016q.01.007.015-.005.005-.017.002-.025"/><path fill="#898989" d="M17.047 28.314a.02.02 0 0 1-.018-.019q.002-.017.018-.019.017.002.018.02-.001.016-.018.018"/><path fill="#4B4132" fill-opacity=".992" d="M32.188 28.292c.006-.008.017-.01.024-.004s.008.018.001.026-.018.01-.025.004-.007-.018 0-.026M18.557 28.323l.002.003h.003l.003-.001.001-.003q.006-.016.003-.024l-.004-.003h-.005l-.004.001-.002.005a.03.03 0 0 0 .003.022M32.13 28.35c0-.008.004-.016.01-.016q.01.001.012.014 0 .015-.01.016-.01-.001-.012-.014M20.139 28.724q.002.004.01.004.013 0 .014-.012 0-.005-.007-.008h-.008l-.007.003-.003.006zM19.098 28.794q0 .008.007.01.015.006.019-.007a.1.1 0 0 0 .002-.023l-.002-.006-.006-.003a.01.01 0 0 0-.01.004.04.04 0 0 0-.01.025M33.73 28.87c.01-.007.023-.007.027 0 .004.008-.001.02-.012.026-.01.007-.023.006-.027-.001-.005-.007 0-.019.011-.026M18.726 29.067q-.003.01.007.014.008.002.01-.003l.003-.008q0-.005-.002-.008l-.006-.005-.008-.001q-.002 0-.004.011M17.555 30.134q.008-.012.017-.008.008.006.001.02-.008.011-.017.007-.008-.006-.001-.02M21.399 30.212q-.003-.012-.015-.01-.018 0-.01.015l.008.006.009.001.006-.005zM17.164 30.243h.008l.004-.003.002-.005q.003-.01-.003-.02-.006-.008-.026-.006-.002 0-.004.002l-.003.003v.005q0 .002.002.004.012.015.02.02M20.614 30.234l-.002.002v.003l.001.004.003.002q.01.005.015 0a.01.01 0 0 0 .002-.012l-.003-.002q-.007-.001-.016.002"/><path fill="#898989" d="M26.536 14.477a.27.27 0 0 1-.087.128l-.015.017c-.053.074-.117.147-.242.306q-.01.014-.07.117a.5.5 0 0 1-.104.123l-.014.015-.364.492c-.063.087-.141.165-.202.246a4 4 0 0 1-.147.188 125 125 0 0 0-1.404 1.708 7 7 0 0 1-.21.248q-.528.633-1.059 1.26-.597.709-.873 1.04-.087.105-.317.391a3 3 0 0 1-.134.154c-.073.079-.146.185-.228.276-.22.24-.418.488-.594.695-.086.1-.1.328-.006.424q.085.088.144.16l.4.49a123 123 0 0 0 .96 1.16 545 545 0 0 1 1.67 2.027q.21.25.505.61.76.93.92 1.112.12.14.26.314.105.129.63.756c.09.109.184.238.275.341.164.186.318.382.483.575q.13.15.31.21l.026.006q.255.023.43.021 1.914 0 4.897-.005.063 0 .114-.033a.04.04 0 0 0 .018-.027.04.04 0 0 0-.006-.033l-.079-.104q-.05-.065-.679-.84a7 7 0 0 0-.17-.203c-.308-.352-.593-.717-.784-.94-.32-.375-.689-.829-1.03-1.235a594 594 0 0 0-2.636-3.119c-.208-.243-.417-.5-.65-.768-.108-.126-.23-.297-.365-.41a3 3 0 0 1-.26-.237q-.036-.039.001-.082.27-.31.58-.7.035-.044.574-.706.544-.667 1.153-1.426.106-.131.236-.288.114-.137.237-.29l.605-.754c.11-.139.287-.345.431-.526q.2-.247.535-.646c.364-.43.629-.755 1.024-1.228.154-.184.36-.406.533-.614q.363-.434.725-.863a.4.4 0 0 0-.1-.01h-4.96c-.084 0-.21.01-.315.026-.275.041-.404.255-.573.45m5.531-.23-.002.004a.01.01 0 0 1-.01.005l-.005-.002-.002-.005q-.002-.004.005-.01l.005-.001h.005a.01.01 0 0 1 .004.009m-.723 15.137.012.002.008-.007.005-.01-.001-.01-.005-.01c-.128-.134-.212-.272-.332-.4-.114-.122-.24-.3-.376-.45-.215-.238-.41-.504-.617-.744q-.178-.207-.448-.536c-.073-.09-.192-.217-.275-.32-.182-.23-.473-.59-.751-.916a52 52 0 0 1-.83-.999c-.053-.064-.098-.108-.145-.164a34 34 0 0 1-.514-.618c-.06-.076-.148-.154-.2-.25a.02.02 0 0 1 .003-.02c.115-.129.273-.105.433-.083a.04.04 0 0 1 .021.01c.109.118.231.281.351.41a4 4 0 0 1 .217.252q.06.075.241.282c.062.07.12.152.186.22.084.086.133.175.214.266q.132.147.246.29c.108.134.218.24.327.381q.09.117.197.236.12.132.198.235a1 1 0 0 0 .086.102q.033.033.067.072.485.57.864 1.047c.069.087.162.17.217.248q.038.055.078.099c.076.086.145.173.194.225.04.042.069.095.106.135q.06.063.079.087.186.225.365.434c.063.074.135.186.213.271.141.155.258.35.396.507q.147.167.274.325a.024.024 0 0 1-.002.033l-.011.005a1.3 1.3 0 0 1-.246.024c-.187.001-.446-.008-.693-.003q-.75.014-1.312.004c-.145-.003-.263.006-.41.003l-.092.003q-.132.003-1.198-.002h-1.081c-.12.001-.242-.023-.357-.026l-.029-.004a.44.44 0 0 1-.171-.096 2 2 0 0 1-.148-.14 20 20 0 0 1-.546-.66 3 3 0 0 0-.202-.25.2.2 0 0 1-.032-.047c-.02-.043-.067-.065-.095-.103-.057-.073-.113-.126-.168-.203a.7.7 0 0 0-.084-.095l-.016-.018c-.097-.136-.14-.203-.236-.287l-.015-.018c-.148-.194-.304-.374-.457-.556a140 140 0 0 1-.935-1.131l-.761-.926a80 80 0 0 1-1.13-1.372q-.11-.14-.227-.275c-.146-.171-.31-.384-.423-.533a2.4 2.4 0 0 0-.207-.24c-.082-.08-.174-.228-.27-.328a2 2 0 0 1-.124-.141 4 4 0 0 0-.239-.284.4.4 0 0 1-.052-.08l-.002-.01.003-.01c.146-.199.337-.132.547-.096l.011.004.009.009q.112.172.201.276.073.085.116.147.084.12.115.147.105.092.283.337.061.086.33.404c.014.016.034.028.047.045q.198.25.225.279c.058.06.09.115.147.18q.116.136.133.148a.3.3 0 0 1 .059.082.3.3 0 0 0 .075.09l1.18 1.418.008.014c.04.088.11.136.167.205q.171.206.282.343c.04.05.105.105.145.157q.152.205.426.535.255.308.46.544c.095.108.201.262.309.379l.056.067.265.326q.06.075.118.134c.107.11.186.227.291.343q.16.177.315.359c.054.064.107.102.16.16a1 1 0 0 0 .112.103c.094.07.144.107.25.116.07.005.209.025.312.027q.763.015 1.504.002c.07-.001.143.009.214.003q.067-.005.16-.003.264.006.455.006c.1 0 .185-.012.263-.005q.092.009.197 0c.093-.006.185.008.292.004.236-.009.418.01.626-.022l.01-.004.006-.008.003-.009-.003-.01a.04.04 0 0 0-.013-.012q-.156.015-.313.014-.26 0-.312.003a2 2 0 0 1-.216-.001 3 3 0 0 0-.215 0q-.29.004-.762-.007-.025 0-.05.004l-.048.007q-.776-.005-1.627-.002c-.155 0-.347-.011-.458-.02a.4.4 0 0 1-.164-.051 1 1 0 0 1-.222-.18c-.053-.06-.12-.115-.179-.183q-.455-.525-.949-1.124a49 49 0 0 0-.62-.74q-.19-.238-.573-.706c-.105-.128-.184-.206-.265-.313a7 7 0 0 0-.195-.238q-.232-.275-.436-.53-.325-.405-.654-.792a22 22 0 0 1-.395-.477 17 17 0 0 0-.393-.477 10.665 10.665 0 0 0-.34-.417 15 15 0 0 1-.256-.314q-.195-.247-.604-.753a.07.07 0 0 1 .001-.086c.412-.476.716-.81 1.058-1.216l.686-.806a209 209 0 0 0 1.755-2.088q.483-.585.77-.922.36-.424.711-.848c.37-.445.733-.866 1.115-1.327.077-.093.138-.135.246-.148a5 5 0 0 1 .376-.007q.124 0 .377-.012c.283-.014.584-.005.934-.01a360 360 0 0 1 2.053-.016l.006.006.001.009-.003.008-5.949 7.34a.07.07 0 0 0-.01.068.4.4 0 0 0 .077.123q.208.233.434.504.031.04.749.869.46.533.745.872a667 667 0 0 1 3.244 3.894c.18.218.363.42.534.639.106.134.22.264.332.394"/><path fill="#0E181C" d="M32.483 14.01q-.363.429-.725.864c-.173.207-.38.43-.534.614-.395.472-.66.797-1.023 1.227q-.336.399-.535.647c-.145.18-.32.387-.431.525q-.568.71-.606.755-.122.153-.236.29-.13.156-.236.287a277 277 0 0 1-1.727 2.132 19 19 0 0 1-.58.7q-.038.045 0 .083.108.111.258.236c.136.114.258.285.366.41.232.269.441.525.65.768q.445.517 2.636 3.12c.341.405.71.86 1.03 1.234.19.223.476.589.784.94q.1.116.17.203l.679.84.08.105.005.016a.05.05 0 0 1-.007.032l-.012.012a.2.2 0 0 1-.113.033q-2.985.005-4.897.005a5 5 0 0 1-.43-.022l-.026-.005a.7.7 0 0 1-.31-.211c-.166-.192-.32-.388-.484-.574-.09-.104-.183-.233-.274-.341q-.525-.627-.63-.756a12 12 0 0 0-.261-.314 84 84 0 0 1-.919-1.112 73 73 0 0 0-.505-.61 557.393 557.393 0 0 0-1.774-2.15 127 127 0 0 1-1.256-1.527 3 3 0 0 0-.144-.16c-.094-.096-.08-.324.005-.425.176-.207.375-.455.594-.695.083-.09.155-.197.229-.275q.068-.072.134-.155.229-.285.317-.39.276-.332.873-1.04.53-.628 1.058-1.26l-.193.063-1.133 1.337c-.076.091-.167.186-.235.268q-.224.273-.59.698-.338.395-1.232 1.45a.7.7 0 0 0-.151.45q-.012.304 0 .712c.008.243.097.344.251.526l1.167 1.408q.843 1.017 1.556 1.89c.832 1.016 1.364 1.653 2.148 2.61.308.374.6.713.882 1.063.162.2.28.352.512.42.139.042.247.037.415.037q2.976.003 5.068 0a.51.51 0 0 0 .404-.21q.334-.412.424-.53c.127-.168.05-.327-.064-.467q-2.951-3.585-5.805-6.99-.253-.304-.454-.553a.03.03 0 0 1 0-.034q.306-.391.564-.71.387-.477.574-.712a372 372 0 0 1 3.084-3.83q.939-1.14 1.804-2.23c.132-.167.249-.37.095-.57a.4.4 0 0 0-.284-.151m-.521 1.024-.028.007h-.004a.01.01 0 0 1-.006-.007q0-.002.002-.004c.003-.006.024-.01.033-.012.008-.002.03-.007.035-.002l.003.003v.005l-.003.004-.004.002q-.015 0-.028.004m.128.021q0 .008-.006.014a.02.02 0 0 1-.015.005.02.02 0 0 1-.016-.005.02.02 0 0 1-.006-.014q0-.008.006-.013a.02.02 0 0 1 .016-.006q.008 0 .015.006a.02.02 0 0 1 .006.013m-4.493 15.16-.006.01-.01.005q-.006 0-.011-.002a.02.02 0 0 1-.008-.01q-.002-.006 0-.009.016-.009.028-.003.007.005.007.009"/><path fill="#898989" d="M32.066 14.247v-.005l-.004-.003h-.005l-.005.001q-.006.004-.005.01l.003.004.005.003a.01.01 0 0 0 .009-.005z"/><path fill="#4B4132" fill-opacity=".992" d="m23.483 18.129.193-.064q.108-.12.21-.248.754-.93 1.404-1.708.076-.09.148-.188c.06-.081.138-.159.201-.245a48 48 0 0 1 .378-.508.5.5 0 0 0 .104-.123q.06-.104.07-.117c.126-.159.19-.232.242-.306l.016-.017a.27.27 0 0 0 .086-.128q-.268.322-.529.645-.067.084-.136.16c-.062.069-.105.133-.174.216l-.586.696q-.477.567-.797.954a10 10 0 0 1-.23.271c-.104.115-.192.229-.3.353q-.153.176-.3.357"/><path fill="#0E181C" d="M31.348 29.44q.023-.02-.004-.056c-.113-.13-.227-.26-.332-.394-.172-.22-.353-.42-.534-.64a610 610 0 0 0-3.244-3.893q-.286-.34-.745-.872l-.75-.869q-.225-.272-.433-.504a.4.4 0 0 1-.077-.123.07.07 0 0 1 .01-.067l5.949-7.34a.02.02 0 0 0 .002-.018l-.006-.006-.008-.003q-.63.003-2.045.02c-.35.004-.651-.005-.935.009a9 9 0 0 1-.376.012q-.312 0-.376.007c-.108.013-.17.055-.246.148-.382.46-.745.882-1.115 1.327q-.352.425-.711.848-.287.338-.77.922a163 163 0 0 1-1.756 2.089l-.686.805c-.341.406-.645.74-1.057 1.216a.067.067 0 0 0-.001.086q.408.506.604.753.168.21.254.313a10 10 0 0 1 .341.418q.137.156.394.477.18.226.395.477.329.387.653.792.206.256.437.53.154.184.195.238c.08.107.16.185.265.313q.383.468.573.705l.088.102q.068.076.532.64.495.598.949 1.123c.058.068.125.123.179.184.057.065.15.136.222.179a.4.4 0 0 0 .163.05c.112.01.304.021.46.021q.85-.003 1.626.002l.048-.007a.2.2 0 0 1 .05-.004q.472.012.762.006a3 3 0 0 1 .215 0q.13.009.215.002a6 6 0 0 1 .313-.002q.157 0 .313-.015m-2.901-14.606a.1.1 0 0 1 .043.007l.005.006a.01.01 0 0 1-.004.013l-.006.001a.1.1 0 0 1-.04-.017l-.003-.002v-.004q0 0 .002-.003zm1.542.496q.006 0 .01.007t.004.017a.03.03 0 0 1-.006.016l-.005.005-.006.001q-.007 0-.01-.007a.033.033 0 0 1 .002-.033l.005-.005zm-2.597.018a.02.02 0 0 1 .01.012.03.03 0 0 1-.002.017.03.03 0 0 1-.012.013.02.02 0 0 1-.014 0 .02.02 0 0 1-.01-.01.03.03 0 0 1 .002-.018.03.03 0 0 1 .011-.013.02.02 0 0 1 .015 0m.127 1.683a.02.02 0 0 1 .006-.015l.007-.004.008-.002.008.002a.02.02 0 0 1 .01.011l.002.008a.02.02 0 0 1-.006.015.02.02 0 0 1-.029 0 .02.02 0 0 1-.006-.015m-1.394.503q0-.002.003-.005l.005-.002a.03.03 0 0 1 .016 0l.008.003.006.005.003.005v.005l-.002.004-.006.003h-.007a.03.03 0 0 1-.016-.004l-.006-.004-.003-.005zm1.21.256v.005l-.003.005-.004.005-.006.003-.006.001-.006-.001-.005-.003-.002-.004v-.005q0-.003.002-.005a.02.02 0 0 1 .01-.008h.012q.003 0 .004.003zm-1.644.03q.021.001.024.011a.02.02 0 0 1-.001.012.02.02 0 0 1-.01.008.02.02 0 0 1-.014-.001l-.01-.009q-.006-.005.003-.018a.01.01 0 0 1 .008-.004m-1.073.367q0-.005.002-.008l.005-.006.007-.005a.03.03 0 0 1 .018 0l.007.005.005.006.002.008q0 .004-.002.008l-.005.006-.007.005a.03.03 0 0 1-.018 0l-.008-.005-.005-.006zm2.471.402q.007 0 .01.006.004.007.004.015t-.005.015q-.003.005-.01.006-.005 0-.01-.007a.03.03 0 0 1-.003-.014q0-.009.004-.015.005-.006.01-.006m-3.004.63v.006l-.005.005a.03.03 0 0 1-.016.007h-.009l-.007-.002-.006-.004-.003-.006q0-.003.002-.006 0-.003.004-.006l.007-.005.008-.002h.01q.003 0 .007.003l.006.004zm.04.411q0-.009.006-.015a.02.02 0 0 1 .014-.006.02.02 0 0 1 .015.006.02.02 0 0 1 0 .03.02.02 0 0 1-.03 0 .02.02 0 0 1-.005-.015m-1.474.813q.005 0 .008.01a.04.04 0 0 1 0 .017.04.04 0 0 1-.008.016q-.005.006-.011.005-.006 0-.008-.01a.04.04 0 0 1 0-.017.03.03 0 0 1 .008-.016q.005-.006.01-.005m.119.078-.001.009-.005.008a.03.03 0 0 1-.017.01h-.01l-.01-.004-.007-.006-.003-.007v-.009l.005-.008.008-.006a.03.03 0 0 1 .03 0l.006.006zm.123.611v-.005l.002-.005.004-.003.006-.001q.021.001.02.014a.01.01 0 0 1-.006.01.01.01 0 0 1-.01.002.03.03 0 0 1-.016-.012m-1.146.916v-.003l.004-.004h.003a245 245 0 0 0 2.287-.024c.244-.004.59 0 .919 0a.3.3 0 0 1 .109.024.01.01 0 0 1 0 .006l-.002.001a1 1 0 0 1-.1.004 578 578 0 0 1-3.218.002l-.002-.003zm.243.204q0-.006.004-.01a.01.01 0 0 1 .01-.004q.005 0 .01.004l.003.01-.004.01a.01.01 0 0 1-.01.004l-.009-.004a.01.01 0 0 1-.004-.01m4.032 3.466q.002-.005.008-.008a.03.03 0 0 1 .015 0q.008.003.012.008.005.006.003.012a.01.01 0 0 1-.008.008.02.02 0 0 1-.015 0 .03.03 0 0 1-.012-.008q-.005-.006-.003-.012m.974.593q.012.007.005.025-.002.007-.01.002-.01-.005-.007-.018l.002-.005.003-.004.003-.001zm-.438.046q.008 0 .013.008a.04.04 0 0 1 .005.02.04.04 0 0 1-.005.02l-.006.005-.007.002q-.008 0-.013-.008a.04.04 0 0 1-.006-.02q0-.004.002-.01l.004-.009.006-.006zm-1.132.222.005.001.004.004.004.005.001.007q0 .008-.002.014-.003.005-.008.006h-.005l-.004-.004-.003-.006-.002-.007q0-.008.002-.013.003-.006.008-.007m2.642.207q-.009-.014.002-.026.005-.005.008-.004.006.001.009.005l.003.01-.003.01a.02.02 0 0 1-.009.007q-.007.001-.01-.002m-1.841.084.006.003.003.007.001.008-.001.008a.02.02 0 0 1-.01.012.02.02 0 0 1-.013.001l-.006-.003-.003-.007-.001-.008.001-.008a.02.02 0 0 1 .01-.012.02.02 0 0 1 .013-.001m2.033.908q.006-.008.014 0 .01.01.002.02l-.004.003h-.005l-.004-.002-.004-.004q-.005-.01.001-.017m-.053.065.005-.006h.008q.005 0 .008.003l.007.007q.009.012.002.022l-.007.007-.01.002-.008-.003-.005-.009q-.003-.018 0-.023m-1.144.085q.003 0 .005.002l.004.004.003.008.001.008a.03.03 0 0 1-.003.016q-.003.007-.009.007-.002 0-.004-.002l-.005-.004-.002-.008-.002-.008q0-.01.004-.016.003-.006.008-.007m1.154.36a.02.02 0 0 1 .005.012q0 .008-.005.014a.02.02 0 0 1-.012.007q-.008.001-.013-.003a.02.02 0 0 1-.005-.012q0-.008.005-.014a.02.02 0 0 1 .012-.008q.008-.001.013.004m-.072.046a.01.01 0 0 1 .008.004l.004.01-.003.011-.003.004-.004.002q-.005 0-.008-.004l-.005-.01v-.007l.003-.005.003-.003zm.99.12q0-.01.006-.018a.024.024 0 0 1 .035 0 .026.026 0 0 1 0 .036.024.024 0 0 1-.035 0 .03.03 0 0 1-.007-.018m.626.416.002.006-.002.007-.005.007-.007.006-.008.004h-.015l-.004-.005-.002-.006.002-.007.005-.007.007-.006.008-.003.008-.001.007.001zm-.12.06q-.01.008-.024 0l-.005-.006v-.008q.01-.015.023-.013.004 0 .007.004l.004.008v.009z"/><path fill="#898989" d="M28.445 14.845a.2.2 0 0 0 .04.018l.006-.002.004-.006v-.007l-.005-.005a.1.1 0 0 0-.043-.008q-.003 0-.004.002l-.001.002v.004z"/><path fill="#4B4132" fill-opacity=".992" d="M31.959 15.018c-.01.002-.03.005-.034.012v.008l.005.003h.004a.3.3 0 0 1 .056-.011l.004-.002.003-.004a.01.01 0 0 0-.003-.009c-.006-.004-.027.001-.035.003M32.068 15.035q.02.002.022.02-.002.017-.022.018c-.012 0-.022-.008-.022-.019s.01-.019.022-.019M27.54 17.053a.02.02 0 0 1-.02-.021.02.02 0 0 1 .02-.021c.01 0 .02.01.02.02a.02.02 0 0 1-.02.022"/><path fill="#898989" d="M25.683 17.823q-.008.013-.004.019a.03.03 0 0 0 .012.008q.006.003.013 0a.02.02 0 0 0 .01-.007.02.02 0 0 0 0-.012q-.003-.009-.023-.012l-.005.001z"/><path fill="#4B4132" fill-opacity=".992" d="M24.146 19.652a.02.02 0 0 1-.021-.021c0-.012.01-.022.02-.022.012 0 .021.01.021.022q-.002.02-.02.021M22.893 21.132q.005.008.015.011h.006a.01.01 0 0 0 .01-.006l.001-.005q0-.013-.02-.015l-.006.001-.005.004-.002.005z"/><path fill="#898989" d="M31.344 29.384q.027.035.004.056a.04.04 0 0 1 .013.013l.003.01a.02.02 0 0 1-.01.017l-.009.003c-.208.033-.39.014-.626.022-.107.004-.2-.01-.292-.003q-.105.009-.197 0c-.078-.007-.163.005-.263.005q-.192 0-.455-.006a2 2 0 0 0-.16.003c-.071.005-.144-.005-.214-.004q-.74.014-1.504 0c-.103-.003-.242-.023-.312-.029-.106-.009-.156-.045-.25-.116a1 1 0 0 1-.113-.102c-.052-.058-.105-.097-.16-.16q-.153-.182-.314-.36c-.105-.116-.184-.233-.29-.342a2 2 0 0 1-.12-.134l-.32-.393c-.108-.118-.214-.272-.308-.38a28 28 0 0 1-.461-.544 15 15 0 0 1-.427-.534c-.039-.053-.105-.108-.145-.157l-.281-.343c-.058-.07-.127-.117-.167-.206l-.008-.013-1.18-1.419-.004-.005a.3.3 0 0 1-.072-.084.24.24 0 0 0-.058-.082 2 2 0 0 1-.133-.148c-.057-.066-.089-.12-.147-.18a8 8 0 0 1-.225-.28c-.014-.017-.033-.028-.046-.044q-.27-.32-.331-.405a2.3 2.3 0 0 0-.283-.337 1 1 0 0 1-.115-.146 2 2 0 0 0-.116-.147 3 3 0 0 1-.21-.285l-.011-.005c-.21-.036-.401-.102-.547.097l-.003.01q0 .005.002.01.03.055.052.08.146.16.24.283.05.069.122.142c.097.1.19.247.27.328a2.4 2.4 0 0 1 .208.24c.112.149.277.361.423.532q.116.136.228.276a80 80 0 0 0 1.245 1.512l.645.785.201.245q.459.558.733.886c.154.183.31.363.457.557l.016.017c.095.085.138.152.236.288l.016.017a.7.7 0 0 1 .084.095c.054.077.11.13.168.204.028.037.075.06.095.103a.2.2 0 0 0 .032.046 3 3 0 0 1 .201.25q.095.127.547.661.035.04.147.14.08.07.172.096l.029.004c.115.002.238.027.357.026q.577-.003 1.081 0a96 96 0 0 0 1.29-.001c.147.002.265-.007.41-.004q.561.01 1.312-.003c.247-.005.506.004.693.002q.137-.001.246-.023l.01-.006.007-.01.001-.012-.005-.011a10 10 0 0 0-.275-.325c-.137-.156-.254-.351-.395-.506-.078-.086-.15-.197-.213-.271q-.18-.21-.365-.434l-.08-.088c-.037-.04-.066-.093-.105-.134-.05-.053-.118-.14-.194-.226a1 1 0 0 1-.078-.098c-.055-.078-.148-.162-.217-.249q-.378-.476-.865-1.046a1 1 0 0 0-.067-.073 1 1 0 0 1-.085-.102 4 4 0 0 0-.198-.235 4 4 0 0 1-.197-.235c-.11-.141-.22-.247-.328-.382a7 7 0 0 0-.245-.29c-.082-.09-.13-.18-.214-.265-.067-.068-.124-.151-.186-.22a7 7 0 0 1-.287-.341 4 4 0 0 0-.17-.193c-.121-.129-.243-.293-.352-.41a.04.04 0 0 0-.02-.01c-.16-.022-.32-.047-.434.082l-.004.01q0 .006.002.011c.051.095.139.173.2.25q.111.141.512.617c.048.056.093.1.145.165q.43.528.83.999c.279.326.57.685.752.915.083.104.201.23.275.32q.27.33.448.537c.207.24.401.506.617.743.136.15.261.328.375.45.121.129.204.266.332.4a.02.02 0 0 1 .006.02.02.02 0 0 1-.012.017z"/><path fill="#4B4132" fill-opacity=".992" d="M22.003 22.266a.014.014 0 0 1-.013-.014q.001-.014.013-.015.013.001.014.015a.014.014 0 0 1-.014.014M26.996 26.311h-.004l-.003.001-.005.008q-.003.015.006.019.01.005.011-.002.007-.018-.005-.026M28.068 26.786q.003.003.01.002a.017.017 0 0 0 .009-.027l-.009-.005q-.003-.001-.008.004-.01.012-.002.026M28.26 27.778q-.007.008-.001.017 0 .003.003.004l.005.002h.005l.004-.003q.007-.01-.002-.02-.008-.007-.014 0M28.207 27.842q-.003.006 0 .024 0 .005.005.009l.008.003q.005 0 .01-.002l.007-.007q.006-.01-.002-.022l-.007-.007-.008-.004-.008.001zM29.158 28.479a.025.025 0 0 1-.024-.026c0-.014.01-.025.024-.025s.025.011.025.025a.025.025 0 0 1-.025.026M29.64 28.931a.02.02 0 0 0 .006-.016l-.004-.008-.007-.004q-.015-.003-.023.014v.007l.005.006q.015.009.023.001M27.597 30.215q0-.005-.007-.008-.014-.007-.027.003-.004.002 0 .01l.007.008.01.002a.02.02 0 0 0 .011-.005z"/></svg>